A review of the latest matches in Europe's premier club competition, plus a look ahead to forthcoming fixtures. Broadcasted on 22 march 2013 in English by UEFA.


Technical Information : 



Video

ID                             : 1
Format                         : AVC
Format/Info                    : Advanced Video Codec
Format profile                 : High@L3.0
Format settings, CABAC         : Yes
Format settings, ReFrames      : 4 frames
Codec ID                       : avc1
Codec ID/Info                  : Advanced Video Coding
Duration                       : 24mn 18s
Bit rate                       : 1 343 Kbps
Maximum bit rate               : 5 731 Kbps
Width                          : 640 pixels
Height                         : 360 pixels
Display aspect ratio           : 16:9
Frame rate mode                : Constant
Frame rate                     : 25.000 fps
Color space                    : YUV
Chroma subsampling             : 4:2:0
Bit depth                      : 8 bits
Scan type                      : Progressive
Bits/(Pixel*Frame)             : 0.233
Stream size                    : 234 MiB (91%)


Audio

ID                             : 2
Format                         : AAC
Format/Info                    : Advanced Audio Codec
Format profile                 : LC
Codec ID                       : 40
Duration                       : 24mn 18s
Bit rate mode                  : Variable
Bit rate                       : 128 Kbps
Maximum bit rate               : 145 Kbps
Channel(s)                     : 2 channels
Channel positions              : Front: L R
Sampling rate                  : 48.0 KHz
Compression mode               : Lossy
Delay relative to video        : 80ms
Stream size                    : 22.2 MiB (9%)
Language                       : English

Screens : 
 
http://i.imgur.com/XMNXDhX.jpg
 
http://i.imgur.com/IqESUHZ.jpg
 
http://i.imgur.com/MpeYyO2.jpg
